<svg version="1.1" id="Layer_1" xmlns="http://www.w3.org/2000/svg" xmlns:xlink="http://www.w3.org/1999/xlink" x="0px" y="0px"
	 width="100%" viewBox="0 0 729 729" enable-background="new 0 0 729 729" xml:space="preserve">
<path fill="#FEFEFE" opacity="0" stroke="none"
	d="
M364.000000,730.000000
	C242.666672,730.000000 121.833336,730.000000 1.000000,730.000000
	C1.000000,487.000000 1.000000,244.000000 1.000000,1.000000
	C244.000000,1.000000 487.000000,1.000000 730.000000,1.000000
	C730.000000,244.000000 730.000000,487.000000 730.000000,730.000000
	C608.166687,730.000000 486.333344,730.000000 364.000000,730.000000
M288.219055,338.294373
	C316.213745,374.144318 344.235748,409.973083 372.146667,445.888123
	C374.185150,448.511230 376.231140,449.640198 379.605469,449.582001
	C391.765839,449.372192 403.932007,449.499603 416.096008,449.499634
	C419.879913,449.499664 423.663818,449.499603 427.496033,449.499603
	C427.496033,382.455444 427.496033,316.051514 427.496033,249.442719
	C409.991455,249.442719 392.769806,249.442719 374.918091,249.442719
	C374.918091,289.414612 374.918091,329.067383 374.918091,369.950806
	C373.020203,367.671448 371.949432,366.450867 370.949371,365.174896
	C341.657776,327.802887 312.333954,290.455902 283.162079,252.990646
	C280.831970,249.998108 278.455963,248.933350 274.778351,249.038651
	C266.120697,249.286545 257.451111,249.118118 248.786346,249.118118
	C241.848267,249.118118 234.910187,249.118118 227.880127,249.118118
	C227.880127,316.237122 227.880127,382.759338 227.880127,449.217926
	C245.413651,449.217926 262.527496,449.217926 280.204224,449.217926
	C280.204224,409.100464 280.204224,369.261078 280.204224,328.053589
	C283.318085,332.025085 285.554108,334.876953 288.219055,338.294373
M100.104965,389.491577
	C100.104965,342.110321 100.104965,294.729034 100.104965,247.457123
	C82.156425,247.457123 65.074280,247.457123 47.874512,247.457123
	C47.874512,314.209198 47.874512,380.627991 47.874512,447.545074
	C85.529053,447.545074 122.939095,447.545074 160.801422,447.545074
	C160.801422,464.611237 160.801422,481.186371 160.801422,497.903748
	C177.163208,497.903748 193.066910,497.903748 209.103729,497.903748
	C209.103729,452.597626 209.103729,407.549988 209.103729,362.247314
	C192.933350,362.247314 177.064133,362.247314 160.751740,362.247314
	C160.751740,375.996796 160.751740,389.424957 160.751740,403.113220
	C140.412552,403.113220 120.517441,403.113220 100.104965,403.113220
	C100.104965,398.735352 100.104965,394.611786 100.104965,389.491577
M633.556824,317.236420
	C631.812256,322.697723 630.067627,328.159027 628.229858,333.911926
	C630.759216,334.973145 633.310547,336.043610 635.993713,337.169373
	C636.917969,335.772705 637.684204,334.706116 638.357422,333.583801
	C648.463379,316.737885 671.184021,313.787964 685.175842,327.514191
	C689.975830,332.223083 689.981628,332.227905 694.227783,327.098419
	C694.852295,326.344025 695.391235,325.518799 696.052979,324.612396
	C695.341064,323.742828 694.763733,322.946930 694.096313,322.235657
	C679.808350,307.008514 683.121704,284.226746 701.511780,274.378113
	C706.825562,271.532349 703.176941,268.975128 702.476379,266.325226
	C701.465881,262.502808 698.888123,264.503906 696.910706,265.327576
	C677.756958,273.305878 657.711731,261.896637 654.756958,241.306290
	C654.531372,239.734283 654.140686,238.185974 653.759155,236.290695
	C650.403809,236.995926 647.573303,237.590836 644.669800,238.201096
	C644.763733,239.539566 644.791870,240.362030 644.882935,241.177475
	C647.171021,261.674927 630.795471,277.508057 610.370239,274.512665
	C606.423096,273.933838 602.486328,273.274841 598.558716,272.574677
	C589.767212,271.007477 589.770813,270.987396 589.770752,261.794220
	C589.770752,260.127594 589.600342,258.439392 589.808472,256.799194
	C590.163269,254.003189 589.116577,252.558319 586.365540,251.784103
	C580.284790,250.072784 574.357483,247.770248 568.227905,246.285721
	C536.285889,238.549622 506.573090,244.038132 479.841797,262.991516
	C451.085144,283.380981 436.808228,311.657104 436.576782,346.997131
	C436.349701,381.674103 449.654816,409.829071 477.333710,430.783173
	C509.555420,455.176392 544.875977,458.301544 582.502991,445.564087
	C588.167114,443.646729 590.495728,441.191406 589.913025,435.128723
	C589.428589,430.089539 588.398071,423.587433 590.923706,420.216400
	C593.275085,417.077972 599.950134,416.973572 604.811584,415.967194
	C613.030518,414.265808 620.967590,410.632812 629.777527,412.877808
	C639.893616,415.455627 648.456055,420.527466 655.874512,428.204498
	C658.289734,426.155396 660.488037,424.290314 663.769104,421.506561
	C655.938904,415.946777 648.903687,410.951508 641.550659,405.730560
	C653.901367,399.045898 664.576477,390.462372 670.885315,376.988098
	C667.859253,375.639465 665.330505,374.512512 662.590576,373.291412
	C655.647583,385.653198 645.875305,393.963959 632.767883,398.359650
	C638.356567,390.157898 643.406921,381.915283 644.033081,371.302551
	C640.915833,371.051605 638.172302,370.830750 635.493042,370.615051
	C629.068970,397.817169 606.845703,407.399017 589.442383,409.282806
	C589.442383,399.754669 589.442383,390.291260 589.442383,380.081787
	C565.261292,408.318939 527.864258,406.482086 507.240448,387.106354
	C488.339142,369.348907 485.592010,335.180908 501.912567,314.379852
	C510.377289,303.591278 521.560059,296.788513 535.111572,294.742340
	C556.629944,291.493317 574.631042,298.584930 589.744141,316.097778
	C589.744141,303.354370 589.744141,292.123657 589.744141,279.872803
	C596.188965,281.450745 601.936096,282.847839 607.678223,284.265656
	C625.449890,288.653656 633.333008,298.392578 633.556824,317.236420
M158.636978,316.565918
	C161.938873,328.484039 170.564651,336.024719 182.124725,337.098938
	C194.171494,338.218384 204.527573,332.659149 209.718094,322.286621
	C214.665283,312.400360 212.736404,299.329376 205.131653,291.206635
	C197.232925,282.769897 183.951416,280.199158 173.449295,285.074280
	C161.952866,290.410889 156.512466,301.493835 158.636978,316.565918
z"/>
<path fill="#030303" opacity="1.000000" stroke="none"
	d="
M288.004608,338.011597
	C285.554108,334.876953 283.318085,332.025085 280.204224,328.053589
	C280.204224,369.261078 280.204224,409.100464 280.204224,449.217926
	C262.527496,449.217926 245.413651,449.217926 227.880127,449.217926
	C227.880127,382.759338 227.880127,316.237122 227.880127,249.118118
	C234.910187,249.118118 241.848267,249.118118 248.786346,249.118118
	C257.451111,249.118118 266.120697,249.286545 274.778351,249.038651
	C278.455963,248.933350 280.831970,249.998108 283.162079,252.990646
	C312.333954,290.455902 341.657776,327.802887 370.949371,365.174896
	C371.949432,366.450867 373.020203,367.671448 374.918091,369.950806
	C374.918091,329.067383 374.918091,289.414612 374.918091,249.442719
	C392.769806,249.442719 409.991455,249.442719 427.496033,249.442719
	C427.496033,316.051514 427.496033,382.455444 427.496033,449.499603
	C423.663818,449.499603 419.879913,449.499664 416.096008,449.499634
	C403.932007,449.499603 391.765839,449.372192 379.605469,449.582001
	C376.231140,449.640198 374.185150,448.511230 372.146667,445.888123
	C344.235748,409.973083 316.213745,374.144318 288.004608,338.011597
z"/>
<path fill="#010101" opacity="1.000000" stroke="none"
	d="
M100.104965,389.989899
	C100.104965,394.611786 100.104965,398.735352 100.104965,403.113220
	C120.517441,403.113220 140.412552,403.113220 160.751740,403.113220
	C160.751740,389.424957 160.751740,375.996796 160.751740,362.247314
	C177.064133,362.247314 192.933350,362.247314 209.103729,362.247314
	C209.103729,407.549988 209.103729,452.597626 209.103729,497.903748
	C193.066910,497.903748 177.163208,497.903748 160.801422,497.903748
	C160.801422,481.186371 160.801422,464.611237 160.801422,447.545074
	C122.939095,447.545074 85.529053,447.545074 47.874512,447.545074
	C47.874512,380.627991 47.874512,314.209198 47.874512,247.457123
	C65.074280,247.457123 82.156425,247.457123 100.104965,247.457123
	C100.104965,294.729034 100.104965,342.110321 100.104965,389.989899
z"/>
<path fill="#0A0709" opacity="1.000000" stroke="none"
	d="
M633.596375,316.777679
	C633.333008,298.392578 625.449890,288.653656 607.678223,284.265656
	C601.936096,282.847839 596.188965,281.450745 589.744141,279.872803
	C589.744141,292.123657 589.744141,303.354370 589.744141,316.097778
	C574.631042,298.584930 556.629944,291.493317 535.111572,294.742340
	C521.560059,296.788513 510.377289,303.591278 501.912567,314.379852
	C485.592010,335.180908 488.339142,369.348907 507.240448,387.106354
	C527.864258,406.482086 565.261292,408.318939 589.442383,380.081787
	C589.442383,390.291260 589.442383,399.754669 589.442383,409.282806
	C606.845703,407.399017 629.068970,397.817169 635.493042,370.615051
	C638.172302,370.830750 640.915833,371.051605 644.033081,371.302551
	C643.406921,381.915283 638.356567,390.157898 632.767883,398.359650
	C645.875305,393.963959 655.647583,385.653198 662.590576,373.291412
	C665.330505,374.512512 667.859253,375.639465 670.885315,376.988098
	C664.576477,390.462372 653.901367,399.045898 641.550659,405.730560
	C648.903687,410.951508 655.938904,415.946777 663.769104,421.506561
	C660.488037,424.290314 658.289734,426.155396 655.874512,428.204498
	C648.456055,420.527466 639.893616,415.455627 629.777527,412.877808
	C620.967590,410.632812 613.030518,414.265808 604.811584,415.967194
	C599.950134,416.973572 593.275085,417.077972 590.923706,420.216400
	C588.398071,423.587433 589.428589,430.089539 589.913025,435.128723
	C590.495728,441.191406 588.167114,443.646729 582.502991,445.564087
	C544.875977,458.301544 509.555420,455.176392 477.333710,430.783173
	C449.654816,409.829071 436.349701,381.674103 436.576782,346.997131
	C436.808228,311.657104 451.085144,283.380981 479.841797,262.991516
	C506.573090,244.038132 536.285889,238.549622 568.227905,246.285721
	C574.357483,247.770248 580.284790,250.072784 586.365540,251.784103
	C589.116577,252.558319 590.163269,254.003189 589.808472,256.799194
	C589.600342,258.439392 589.770752,260.127594 589.770752,261.794220
	C589.770813,270.987396 589.767212,271.007477 598.558716,272.574677
	C602.486328,273.274841 606.423096,273.933838 610.370239,274.512665
	C630.795471,277.508057 647.171021,261.674927 644.882935,241.177475
	C644.791870,240.362030 644.763733,239.539566 644.669800,238.201096
	C647.573303,237.590836 650.403809,236.995926 653.759155,236.290695
	C654.140686,238.185974 654.531372,239.734283 654.756958,241.306290
	C657.711731,261.896637 677.756958,273.305878 696.910706,265.327576
	C698.888123,264.503906 701.465881,262.502808 702.476379,266.325226
	C703.176941,268.975128 706.825562,271.532349 701.511780,274.378113
	C683.121704,284.226746 679.808350,307.008514 694.096313,322.235657
	C694.763733,322.946930 695.341064,323.742828 696.052979,324.612396
	C695.391235,325.518799 694.852295,326.344025 694.227783,327.098419
	C689.981628,332.227905 689.975830,332.223083 685.175842,327.514191
	C671.184021,313.787964 648.463379,316.737885 638.357422,333.583801
	C637.684204,334.706116 636.917969,335.772705 635.993713,337.169373
	C633.310547,336.043610 630.759216,334.973145 628.229858,333.911926
	C630.067627,328.159027 631.812256,322.697723 633.596375,316.777679
M478.495117,311.119812
	C481.843506,309.866455 485.809631,309.366730 488.427002,307.221466
	C497.015564,300.182007 505.246002,292.685760 513.362366,285.095917
	C520.725403,278.210480 521.314880,268.644470 515.202820,262.058960
	C509.331818,255.733093 499.027954,255.520096 491.788147,261.876617
	C483.935333,268.771301 476.370514,275.993195 468.554413,282.930756
	C463.117065,287.756866 461.225006,293.622711 463.439728,300.425568
	C465.613281,307.101929 470.669037,310.522308 478.495117,311.119812
M462.783081,398.107483
	C464.866760,401.586639 466.356232,405.666931 469.149597,408.428162
	C476.475830,415.670044 484.320679,422.393311 492.053192,429.216339
	C499.522339,435.807007 509.142365,435.557617 515.228394,428.770172
	C521.353577,421.939056 520.668762,412.509369 513.297241,405.686798
	C505.607452,398.569580 497.731964,391.652832 489.932739,384.653961
	C484.479858,379.760681 478.269348,378.086090 471.519897,381.326447
	C465.008728,384.452362 462.156830,390.009155 462.783081,398.107483
M480.708649,364.829102
	C480.747559,353.012512 480.908539,341.194702 480.787231,329.379761
	C480.688110,319.724182 473.843323,312.680756 465.114532,312.848206
	C456.207703,313.019104 449.927917,319.904663 449.869537,329.718750
	C449.807129,340.205048 449.816772,350.692200 449.866852,361.178619
	C449.911682,370.563599 455.256439,377.558197 463.044800,378.580658
	C471.090149,379.636810 477.781525,374.714691 480.708649,364.829102
M581.111389,421.654938
	C577.790527,423.076477 574.591187,425.043121 571.125610,425.815582
	C561.378540,427.988098 551.421631,429.269531 541.746460,431.695740
	C536.060425,433.121643 532.425354,429.915741 531.927979,426.797455
	C531.261414,422.617889 533.652710,420.042755 539.564941,418.870941
	C549.206177,416.960022 558.857300,415.096985 568.517395,413.283997
	C569.967712,413.011841 571.492981,413.164032 572.977600,413.044861
	C576.802795,412.737732 580.624573,412.388550 585.387878,411.974426
	C581.280151,405.546844 576.294067,402.781158 570.410095,403.692932
	C558.078369,405.603760 545.790649,407.981812 533.644836,410.846405
	C525.240417,412.828583 521.394836,420.509003 523.123230,429.708344
	C524.453918,436.790894 531.853394,442.641663 539.441711,441.440674
	C551.771179,439.489288 564.039368,437.024109 576.206848,434.225433
	C582.936768,432.677429 586.569824,427.349060 586.655457,420.558655
	C585.013000,420.852905 583.432495,421.136078 581.111389,421.654938
M548.039368,273.567413
	C544.612732,272.893311 541.162048,272.321259 537.765442,271.519745
	C533.353149,270.478516 531.001648,267.328247 532.012329,263.676605
	C533.167603,259.502197 536.447571,258.453156 540.246094,259.119720
	C550.721924,260.957947 561.174927,262.932892 571.610596,264.987396
	C573.173096,265.295074 574.561584,266.405334 576.087341,266.998260
	C579.460327,268.309082 582.869568,269.526917 586.694519,270.941956
	C586.516174,263.493866 582.904297,258.339874 576.267883,256.847565
	C564.122742,254.116501 551.881226,251.670792 539.566772,249.886856
	C531.546326,248.724945 524.408569,254.246948 523.069153,261.236542
	C521.336609,270.277222 525.071594,277.880127 533.736389,279.992096
	C545.987549,282.978241 558.461731,285.156891 570.932678,287.085419
	C576.718628,287.980164 581.427856,285.113495 584.893616,279.563507
	C572.578735,277.576569 560.727600,275.664459 548.039368,273.567413
M661.691284,269.917206
	C658.370117,266.837372 655.049011,263.757507 651.530518,260.494659
	C646.757996,270.995270 638.956970,278.071655 627.825439,282.531586
	C637.776489,291.412048 643.091309,301.891785 643.122070,315.397766
	C654.152649,308.979218 665.292053,308.308014 677.215088,311.374451
	C674.463562,298.882202 676.474609,287.963104 682.584045,278.830658
	C675.594299,275.886475 668.953674,273.089294 661.691284,269.917206
z"/>
<path fill="#040404" opacity="1.000000" stroke="none"
	d="
M158.515945,316.154175
	C156.512466,301.493835 161.952866,290.410889 173.449295,285.074280
	C183.951416,280.199158 197.232925,282.769897 205.131653,291.206635
	C212.736404,299.329376 214.665283,312.400360 209.718094,322.286621
	C204.527573,332.659149 194.171494,338.218384 182.124725,337.098938
	C170.564651,336.024719 161.938873,328.484039 158.515945,316.154175
z"/>
<path fill="#F354F3" opacity="1.000000" stroke="none"
	d="
M478.068420,311.115906
	C470.669037,310.522308 465.613281,307.101929 463.439728,300.425568
	C461.225006,293.622711 463.117065,287.756866 468.554413,282.930756
	C476.370514,275.993195 483.935333,268.771301 491.788147,261.876617
	C499.027954,255.520096 509.331818,255.733093 515.202820,262.058960
	C521.314880,268.644470 520.725403,278.210480 513.362366,285.095917
	C505.246002,292.685760 497.015564,300.182007 488.427002,307.221466
	C485.809631,309.366730 481.843506,309.866455 478.068420,311.115906
M502.710083,282.211517
	C504.051605,280.976440 505.369720,279.714752 506.739197,278.511505
	C510.354065,275.335358 511.005432,271.563019 508.423553,268.564240
	C505.837860,265.561035 501.930328,265.543335 498.317200,268.726410
	C490.608124,275.517944 482.943176,282.360382 475.320282,289.248505
	C471.427887,292.765686 470.834778,296.630493 473.523102,299.639374
	C476.208496,302.644989 480.203583,302.391174 484.041748,298.945435
	C490.084778,293.520264 496.116486,288.082428 502.710083,282.211517
z"/>
<path fill="#F354F3" opacity="1.000000" stroke="none"
	d="
M462.730865,397.675232
	C462.156830,390.009155 465.008728,384.452362 471.519897,381.326447
	C478.269348,378.086090 484.479858,379.760681 489.932739,384.653961
	C497.731964,391.652832 505.607452,398.569580 513.297241,405.686798
	C520.668762,412.509369 521.353577,421.939056 515.228394,428.770172
	C509.142365,435.557617 499.522339,435.807007 492.053192,429.216339
	C484.320679,422.393311 476.475830,415.670044 469.149597,408.428162
	C466.356232,405.666931 464.866760,401.586639 462.730865,397.675232
M484.764130,392.643402
	C479.933746,388.509125 476.303070,388.078552 473.470001,391.303925
	C470.638123,394.527954 471.504028,398.172272 476.167603,402.370972
	C483.470551,408.945984 490.761841,415.534698 498.130951,422.035034
	C501.719543,425.200562 505.844116,425.312347 508.322327,422.547638
	C510.939270,419.628143 510.452667,415.833435 506.834686,412.524017
	C499.706543,406.003876 492.503540,399.565582 484.764130,392.643402
z"/>
<path fill="#54B7F5" opacity="1.000000" stroke="none"
	d="
M480.649414,365.251709
	C477.781525,374.714691 471.090149,379.636810 463.044800,378.580658
	C455.256439,377.558197 449.911682,370.563599 449.866852,361.178619
	C449.816772,350.692200 449.807129,340.205048 449.869537,329.718750
	C449.927917,319.904663 456.207703,313.019104 465.114532,312.848206
	C473.843323,312.680756 480.688110,319.724182 480.787231,329.379761
	C480.908539,341.194702 480.747559,353.012512 480.649414,365.251709
M471.845306,338.524170
	C471.841187,335.534058 471.905701,332.541931 471.817169,329.554321
	C471.677795,324.852020 468.961761,321.755920 465.183014,321.846527
	C461.325653,321.939026 458.881805,324.926880 458.862946,329.793701
	C458.821777,340.425110 458.818359,351.056976 458.865570,361.688354
	C458.887421,366.614624 461.301086,369.568207 465.172668,369.655823
	C469.121582,369.745209 471.797089,366.519501 471.832184,361.444489
	C471.882690,354.135620 471.845215,346.826141 471.845306,338.524170
z"/>
<path fill="#F22655" opacity="1.000000" stroke="none"
	d="
M581.481689,421.537109
	C583.432495,421.136078 585.013000,420.852905 586.655457,420.558655
	C586.569824,427.349060 582.936768,432.677429 576.206848,434.225433
	C564.039368,437.024109 551.771179,439.489288 539.441711,441.440674
	C531.853394,442.641663 524.453918,436.790894 523.123230,429.708344
	C521.394836,420.509003 525.240417,412.828583 533.644836,410.846405
	C545.790649,407.981812 558.078369,405.603760 570.410095,403.692932
	C576.294067,402.781158 581.280151,405.546844 585.387878,411.974426
	C580.624573,412.388550 576.802795,412.737732 572.977600,413.044861
	C571.492981,413.164032 569.967712,413.011841 568.517395,413.283997
	C558.857300,415.096985 549.206177,416.960022 539.564941,418.870941
	C533.652710,420.042755 531.261414,422.617889 531.927979,426.797455
	C532.425354,429.915741 536.060425,433.121643 541.746460,431.695740
	C551.421631,429.269531 561.378540,427.988098 571.125610,425.815582
	C574.591187,425.043121 577.790527,423.076477 581.481689,421.537109
z"/>
<path fill="#F32755" opacity="1.000000" stroke="none"
	d="
M548.457886,273.659882
	C560.727600,275.664459 572.578735,277.576569 584.893616,279.563507
	C581.427856,285.113495 576.718628,287.980164 570.932678,287.085419
	C558.461731,285.156891 545.987549,282.978241 533.736389,279.992096
	C525.071594,277.880127 521.336609,270.277222 523.069153,261.236542
	C524.408569,254.246948 531.546326,248.724945 539.566772,249.886856
	C551.881226,251.670792 564.122742,254.116501 576.267883,256.847565
	C582.904297,258.339874 586.516174,263.493866 586.694519,270.941956
	C582.869568,269.526917 579.460327,268.309082 576.087341,266.998260
	C574.561584,266.405334 573.173096,265.295074 571.610596,264.987396
	C561.174927,262.932892 550.721924,260.957947 540.246094,259.119720
	C536.447571,258.453156 533.167603,259.502197 532.012329,263.676605
	C531.001648,267.328247 533.353149,270.478516 537.765442,271.519745
	C541.162048,272.321259 544.612732,272.893311 548.457886,273.659882
z"/>
<path fill="#F0F0F0" opacity="1.000000" stroke="none"
	d="
M662.002136,270.104675
	C668.953674,273.089294 675.594299,275.886475 682.584045,278.830658
	C676.474609,287.963104 674.463562,298.882202 677.215088,311.374451
	C665.292053,308.308014 654.152649,308.979218 643.122070,315.397766
	C643.091309,301.891785 637.776489,291.412048 627.825439,282.531586
	C638.956970,278.071655 646.757996,270.995270 651.530518,260.494659
	C655.049011,263.757507 658.370117,266.837372 662.002136,270.104675
M669.192444,292.622772
	C669.179321,290.644409 669.538818,288.574951 669.081970,286.704987
	C667.790283,281.417877 664.460510,277.856201 658.969604,276.927399
	C654.150574,276.112274 650.124756,277.734406 647.215881,281.798859
	C644.016052,286.269897 643.511292,290.964172 646.105774,295.875397
	C648.495117,300.398132 652.274841,302.896362 657.399048,302.730713
	C663.496155,302.533600 667.058838,298.870697 669.192444,292.622772
z"/>
<path fill="#0A030A" opacity="1.000000" stroke="none"
	d="
M502.431519,282.430725
	C496.116486,288.082428 490.084778,293.520264 484.041748,298.945435
	C480.203583,302.391174 476.208496,302.644989 473.523102,299.639374
	C470.834778,296.630493 471.427887,292.765686 475.320282,289.248505
	C482.943176,282.360382 490.608124,275.517944 498.317200,268.726410
	C501.930328,265.543335 505.837860,265.561035 508.423553,268.564240
	C511.005432,271.563019 510.354065,275.335358 506.739197,278.511505
	C505.369720,279.714752 504.051605,280.976440 502.431519,282.430725
z"/>
<path fill="#0A030A" opacity="1.000000" stroke="none"
	d="
M485.047791,392.868408
	C492.503540,399.565582 499.706543,406.003876 506.834686,412.524017
	C510.452667,415.833435 510.939270,419.628143 508.322327,422.547638
	C505.844116,425.312347 501.719543,425.200562 498.130951,422.035034
	C490.761841,415.534698 483.470551,408.945984 476.167603,402.370972
	C471.504028,398.172272 470.638123,394.527954 473.470001,391.303925
	C476.303070,388.078552 479.933746,388.509125 485.047791,392.868408
z"/>
<path fill="#020507" opacity="1.000000" stroke="none"
	d="
M471.845306,339.020538
	C471.845215,346.826141 471.882690,354.135620 471.832184,361.444489
	C471.797089,366.519501 469.121582,369.745209 465.172668,369.655823
	C461.301086,369.568207 458.887421,366.614624 458.865570,361.688354
	C458.818359,351.056976 458.821777,340.425110 458.862946,329.793701
	C458.881805,324.926880 461.325653,321.939026 465.183014,321.846527
	C468.961761,321.755920 471.677795,324.852020 471.817169,329.554321
	C471.905701,332.541931 471.841187,335.534058 471.845306,339.020538
z"/>
<path fill="#282828" opacity="1.000000" stroke="none"
	d="
M669.100098,292.994080
	C667.058838,298.870697 663.496155,302.533600 657.399048,302.730713
	C652.274841,302.896362 648.495117,300.398132 646.105774,295.875397
	C643.511292,290.964172 644.016052,286.269897 647.215881,281.798859
	C650.124756,277.734406 654.150574,276.112274 658.969604,276.927399
	C664.460510,277.856201 667.790283,281.417877 669.081970,286.704987
	C669.538818,288.574951 669.179321,290.644409 669.100098,292.994080
M666.264893,288.703613
	C665.437622,284.262817 663.248169,280.420776 658.542908,280.276276
	C655.663818,280.187866 652.022705,281.698334 649.955688,283.738708
	C646.742065,286.910980 646.841675,291.247650 649.382202,295.194092
	C651.573303,298.597748 654.710632,300.254089 658.716003,299.310364
	C663.759583,298.122009 665.989624,294.503326 666.264893,288.703613
z"/>
<path fill="#F5F5F5" opacity="1.000000" stroke="none"
	d="
M666.288574,289.113922
	C665.989624,294.503326 663.759583,298.122009 658.716003,299.310364
	C654.710632,300.254089 651.573303,298.597748 649.382202,295.194092
	C646.841675,291.247650 646.742065,286.910980 649.955688,283.738708
	C652.022705,281.698334 655.663818,280.187866 658.542908,280.276276
	C663.248169,280.420776 665.437622,284.262817 666.288574,289.113922
z"/>
</svg>
